<svg width="44" height="44" viewBox="0 0 44 44" fill="none" xmlns="http://www.w3.org/2000/svg">
<path d="M22 44C34.1503 44 44 34.1503 44 22C44 9.84974 34.1503 0 22 0C9.84974 0 0 9.84974 0 22C0 34.1503 9.84974 44 22 44Z" fill="#FEDEDD"/>
<path d="M35 15.2304V11.6765C35 11.5539 34.8775 11.4314 34.7549 11.3088L32.549 10.0833V8.36765C32.549 8.12255 32.4265 8 32.1814 8H13.6765H10.3676C10.1225 8 10 8.12255 10 8.36765V34.2255C10 34.4706 10.1225 34.5931 10.3676 34.5931H13.6765H32.1814C32.4265 34.5931 32.549 34.4706 32.549 34.2255V32.3873L34.7549 31.1618C34.8775 31.0392 35 30.9167 35 30.7941V27.3627C35 27.2402 34.8775 27.1176 34.7549 26.9951L33.7745 26.5049L34.7549 26.0147C34.8775 25.8922 35 25.7696 35 25.6471V22.2157C35 22.0931 34.8775 21.9706 34.7549 21.848L33.7745 21.3578L34.7549 20.8676C34.8775 20.7451 35 20.6226 35 20.5V16.9461C35 16.8235 34.8775 16.701 34.7549 16.5784L33.7745 16.0882L34.7549 15.598C34.8775 15.4755 35 15.3529 35 15.2304ZM10.8578 8.85784H13.3088V33.8578H10.8578V8.85784ZM31.8137 33.8578H14.0441V8.85784H31.8137V10.451V15.7206V20.8676V20.9902V26.1373V32.2647V33.8578ZM34.1422 30.6716L32.549 31.5294V26.75L34.1422 27.6078V30.6716ZM34.1422 25.402L32.9167 26.0147L32.549 25.8922V21.6029L34.1422 22.4608V25.402ZM34.1422 20.1324L32.9167 20.7451L32.549 20.6226V16.3333L34.1422 17.1912V20.1324ZM34.1422 14.9853L32.9167 15.598L32.549 15.3529V11.0637L34.1422 11.9216V14.9853Z" fill="#DA0703"/>
<path d="M26.9118 14.0048H18.8235C17.7206 14.0048 16.8627 14.8626 16.8627 15.9656V18.4166C16.8627 19.5195 17.7206 20.3773 18.8235 20.3773H26.9118C28.0147 20.3773 28.8725 19.5195 28.8725 18.4166V15.9656C28.9951 14.8626 28.0147 14.0048 26.9118 14.0048ZM28.1372 18.5391C28.1372 19.1519 27.647 19.7646 26.9118 19.7646H18.8235C18.2108 19.7646 17.598 19.2744 17.598 18.5391V16.0881C17.598 15.4754 18.0882 14.8626 18.8235 14.8626H26.9118C27.5245 14.8626 28.1372 15.3528 28.1372 16.0881V18.5391Z" fill="#DA0703"/>
<path d="M20.9068 22.9507H27.7696C28.0147 22.9507 28.1372 22.8281 28.1372 22.583C28.1372 22.3379 28.0147 22.2154 27.7696 22.2154H20.9068C20.6617 22.2154 20.5392 22.4605 20.5392 22.583C20.5392 22.7056 20.6617 22.9507 20.9068 22.9507Z" fill="#DA0703"/>
<path d="M18.4559 22.0934H17.2304C16.9853 22.0934 16.8627 22.3385 16.8627 22.4611C16.8627 22.7062 17.1078 22.8287 17.2304 22.8287H18.4559C18.701 22.8287 18.8235 22.7062 18.8235 22.4611C18.8235 22.3385 18.701 22.0934 18.4559 22.0934Z" fill="#DA0703"/>
<path d="M28.5049 24.5438H20.9068C20.6617 24.5438 20.5392 24.6664 20.5392 24.9115C20.5392 25.1566 20.6617 25.2791 20.9068 25.2791H28.6274C28.8725 25.2791 28.9951 25.1566 28.9951 24.9115C28.9951 24.6664 28.75 24.5438 28.5049 24.5438Z" fill="#DA0703"/>
<path d="M18.4559 24.5438H17.2304C16.9853 24.5438 16.8627 24.6664 16.8627 24.9115C16.8627 25.1566 17.1078 25.2791 17.2304 25.2791H18.4559C18.701 25.2791 18.8235 25.1566 18.8235 24.9115C18.8235 24.6664 18.701 24.5438 18.4559 24.5438Z" fill="#DA0703"/>
<path d="M26.9117 26.8723H20.9068C20.6617 26.8723 20.5392 26.9948 20.5392 27.2399C20.5392 27.485 20.6617 27.6076 20.9068 27.6076H26.9117C27.1568 27.6076 27.2794 27.485 27.2794 27.2399C27.2794 27.1174 27.1568 26.8723 26.9117 26.8723Z" fill="#DA0703"/>
<path d="M18.4559 26.8723H17.2304C16.9853 26.8723 16.8627 26.9948 16.8627 27.2399C16.8627 27.485 17.1078 27.6076 17.2304 27.6076H18.4559C18.701 27.6076 18.8235 27.485 18.8235 27.2399C18.8235 27.1174 18.701 26.8723 18.4559 26.8723Z" fill="#DA0703"/>
</svg>
