<svg width="15" height="17" viewBox="0 0 15 17" fill="none" xmlns="http://www.w3.org/2000/svg">
<path d="M7.16973 12.7548H7.16974V12.7516V5.95157C7.16974 5.74629 7.32893 5.6 7.50153 5.6C7.67225 5.6 7.83333 5.7475 7.83333 5.95157V12.7516C7.83333 12.9525 7.67532 13.1 7.50153 13.1C7.3236 13.1 7.16844 12.9521 7.16973 12.7548ZM11.1667 1.7V2.2H11.6667H14.1682C14.3414 2.2 14.4983 2.34616 14.4969 2.5483H14.4969V2.55157C14.4969 2.7525 14.3389 2.9 14.1651 2.9H13.6651V3.4V15.3C13.6651 15.9725 13.1338 16.5 12.4985 16.5H2.49847C1.86309 16.5 1.3318 15.9725 1.3318 15.3V3.4V2.9H0.831799C0.656824 2.9 0.5 2.75442 0.5 2.55157C0.5 2.34629 0.659195 2.2 0.831799 2.2H3.33333H3.83333V1.7V0.848435C3.83333 0.649923 3.99204 0.5 4.1682 0.5H10.8349C11.008 0.5 11.1667 0.646795 11.1667 0.848435V1.7ZM1.99847 15.3V15.8H2.49847H11.9985H12.4985H12.5015V15.3H12.9985V3.4V2.9H12.4985H2.49847H1.99847V3.4V15.3ZM5.33487 12.7516C5.33487 12.9501 5.17616 13.1 5 13.1C4.82502 13.1 4.6682 12.9544 4.6682 12.7516V5.95157C4.6682 5.74629 4.8274 5.6 5 5.6C5.17497 5.6 5.33487 5.74871 5.33487 5.95157V12.7516ZM10.3318 12.7516C10.3318 12.9525 10.1738 13.1 10 13.1C9.82594 13.1 9.66713 12.9549 9.66513 12.7496V5.95157C9.66513 5.74871 9.82503 5.6 10 5.6C10.1707 5.6 10.3318 5.7475 10.3318 5.95157V12.7516Z" fill="#EB5757" stroke="#EB5757"/>
</svg>
