<svg width="18" height="17" viewBox="0 0 18 17" fill="none" xmlns="http://www.w3.org/2000/svg">
<path d="M5.6263 11.9647H5.1263V12.4647V13.5971V14.0971H5.6263H12.3767H12.8767V13.5971V12.4647V11.9647H12.3767H5.6263ZM5.6263 14.2323H5.1263V14.7323V15.8647V16.3647H5.6263H12.3767H12.8767V15.8647V14.7323V14.2323H12.3767H5.6263ZM13.0008 16.5H4.99933V13.6V11.8323H13.0008V13.6V16.5Z" fill="#0F2137" stroke="#0F2137"/>
<path d="M4.99933 0.5H13.0008V3.4V5.16763H4.99933V3.4V0.5Z" fill="#0F2137" stroke="#0F2137"/>
<path d="M14.6248 7.29999H15.1248V6.79999V5.66762V3.89999H15.7489C16.1488 3.89999 16.5904 4.10591 16.9422 4.46034C17.2939 4.81455 17.5 5.26103 17.5 5.66762V11.3324C17.5 11.7386 17.2935 12.185 16.9413 12.5395C16.5889 12.8942 16.1472 13.1 15.7489 13.1H15.1248V11.3324V10.2V9.7H14.6248H3.37518H2.87518V10.2V11.3352V13.1029H2.25107C1.85161 13.1029 1.41002 12.8966 1.05792 12.5416C0.705987 12.1868 0.5 11.7402 0.5 11.3352V5.66762C0.5 5.26103 0.706145 4.81455 1.05777 4.46034C1.40962 4.10591 1.85122 3.89999 2.25107 3.89999H2.87518V5.66762V6.79999V7.29999H3.37518H14.6248Z" fill="#0F2137" stroke="#0F2137"/>
</svg>
